<svg xmlns="http://www.w3.org/2000/svg" width="60" height="60" viewBox="0 0 60 60">
  <g id="Group_77" data-name="Group 77" transform="translate(0 6)">
    <g id="Path_41" data-name="Path 41" transform="translate(0 -6)" fill="#fff">
      <path d="M 30 57 C 26.35370063781738 57 22.81806755065918 56.28654479980469 19.49130058288574 54.87943267822266 C 16.27652168273926 53.51969909667969 13.38872241973877 51.57249069213867 10.90811157226563 49.09188842773438 C 8.427511215209961 46.61127853393555 6.480299949645996 43.72347640991211 5.120566844940186 40.50870132446289 C 3.713455438613892 37.18193435668945 3 33.64630126953125 3 30 C 3 26.35370063781738 3.713455438613892 22.81806755065918 5.120566844940186 19.49130058288574 C 6.480299949645996 16.27652168273926 8.427511215209961 13.38872241973877 10.90811157226563 10.90811157226563 C 13.38872241973877 8.427511215209961 16.27652168273926 6.480299949645996 19.49130058288574 5.120566844940186 C 22.81806755065918 3.713455438613892 26.35370063781738 3 30 3 C 33.64630126953125 3 37.18193435668945 3.713455438613892 40.50870132446289 5.120566844940186 C 43.72347640991211 6.480299949645996 46.61127853393555 8.427511215209961 49.09188842773438 10.90811157226563 C 51.57249069213867 13.38872241973877 53.51969909667969 16.27652168273926 54.87943267822266 19.49130058288574 C 56.28654479980469 22.81806755065918 57 26.35370063781738 57 30 C 57 33.64630126953125 56.28654479980469 37.18193435668945 54.87943267822266 40.50870132446289 C 53.51969909667969 43.72347640991211 51.57249069213867 46.61127853393555 49.09188842773438 49.09188842773438 C 46.61127853393555 51.57249069213867 43.72347640991211 53.51969909667969 40.50870132446289 54.87943267822266 C 37.18193435668945 56.28654479980469 33.64630126953125 57 30 57 Z" stroke="none"/>
      <path d="M 30 6 C 16.766357421875 6 6 16.766357421875 6 30 C 6 43.233642578125 16.766357421875 54 30 54 C 43.233642578125 54 54 43.233642578125 54 30 C 54 16.766357421875 43.233642578125 6 30 6 M 30 0 C 46.56854248046875 0 60 13.43145751953125 60 30 C 60 46.56854248046875 46.56854248046875 60 30 60 C 13.43145751953125 60 0 46.56854248046875 0 30 C 0 13.43145751953125 13.43145751953125 0 30 0 Z" stroke="none" fill="#001339"/>
    </g>
    <g id="forward_black_24dp" transform="translate(51 45) rotate(180)">
      <path id="Path_39" data-name="Path 39" d="M0,0H42V42H0Z" fill="none"/>
      <path id="Path_40" data-name="Path 40" d="M14,4.539V1.757A1.755,1.755,0,0,1,16.992.515L26.775,10.3a1.743,1.743,0,0,1,0,2.467l-9.782,9.782A1.75,1.75,0,0,1,14,21.322V18.539H1.75A1.755,1.755,0,0,1,0,16.789V6.289a1.755,1.755,0,0,1,1.75-1.75Z" transform="translate(7 9.46)" fill="#001339"/>
    </g>
  </g>
</svg>
