<svg xmlns="http://www.w3.org/2000/svg" width="26.5" height="26.092" viewBox="0 0 26.5 26.092">
  <path id="Icon_ionic-md-cart" data-name="Icon ionic-md-cart" d="M11.121,24.392a2.65,2.65,0,1,0,2.65,2.65A2.658,2.658,0,0,0,11.121,24.392ZM3.375,3.6V6.25h2.65l4.77,9.662L8.8,19.158a2.638,2.638,0,0,0,2.524,3.909H26.817V20.519H11.649a.313.313,0,0,1-.331-.331,1.652,1.652,0,0,1,.141-.331l1.324-2.089h9.871a2.6,2.6,0,0,0,2.319-1.391l4.77-8.2a1.549,1.549,0,0,0,.133-.662A1.274,1.274,0,0,0,28.55,6.25H8.94L7.681,3.6ZM24.167,24.392a2.65,2.65,0,1,0,2.65,2.65A2.658,2.658,0,0,0,24.167,24.392Z" transform="translate(-3.375 -3.6)" fill="#f8f8f8"/>
</svg>
