<svg width="500" height="500" viewBox="0 0 500 500" fill="none" xmlns="http://www.w3.org/2000/svg">
<path d="M430.5 32L422.5 24L387 55.4623C389.836 58.3338 392.34 61.5338 394.45 65L430.5 32Z" fill="#FFD2A9"/>
<path d="M350 40C321.281 40 298 63.2812 298 92C298 98.3276 299.13 104.391 301.2 110H398.8C400.87 104.391 402 98.3276 402 92C402 82.1128 399.241 72.8701 394.45 65C392.34 61.5338 389.836 58.3338 387 55.4623C377.572 45.916 364.477 40 350 40Z" fill="#FFB7CC"/>
<path d="M154 462C173.33 462 189 446.33 189 427H119C119 446.33 134.67 462 154 462Z" fill="#C6C6C6"/>
<path d="M369 462C388.33 462 404 446.33 404 427H334C334 446.33 349.67 462 369 462Z" fill="#C6C6C6"/>
<path d="M455 339H70.0878C68.9857 351.082 67.9543 362.806 67 374H455V339Z" fill="#FFC6D7"/>
<path d="M65 427C59.5 427 59.4999 427 59.5 418C59.5 414.459 62.3634 406.333 67.2377 374.5H455.5V427H65Z" fill="#FFF9DC"/>
<path d="M330 203.5H101C88.8213 237.124 77.9044 292.757 70.3276 339H455.5V203.5H376.5C368 203.5 368.5 208 368.5 212V245C368.5 250 366.5 259.5 356 259.5C345.5 259.5 341 252 341 245V212C341 206.5 339.5 203.5 330 203.5Z" fill="#FFF9DC"/>
<path d="M101 203.5C123.551 141.239 168.5 110 208.5 110H301.2H398.8H455.5V203.5H376.5C368 203.5 368.5 208 368.5 212V245C368.5 250 366.5 259.5 356 259.5C345.5 259.5 341 252 341 245V212C341 206.5 339.5 203.5 330 203.5H101Z" fill="#FFBCA7"/>
<path d="M101 203.5C174.167 203.5 322.4 203.5 330 203.5C339.5 203.5 341 206.5 341 212C341 217.5 341 238 341 245C341 252 345.5 259.5 356 259.5C366.5 259.5 368.5 250 368.5 245C368.5 240 368.5 216 368.5 212C368.5 208 368 203.5 376.5 203.5C383.3 203.5 432 203.5 455.5 203.5M70.3276 339H455.5M67.2377 374.5H455.5M301.2 110C299.13 104.391 298 98.3276 298 92C298 63.2812 321.281 40 350 40C364.477 40 377.572 45.916 387 55.4623M398.8 110C400.87 104.391 402 98.3276 402 92C402 82.1128 399.241 72.8701 394.45 65M394.45 65L430.5 32L422.5 24L387 55.4623M394.45 65C392.34 61.5338 389.836 58.3338 387 55.4623M189 427C189 446.33 173.33 462 154 462C134.67 462 119 446.33 119 427M404 427C404 446.33 388.33 462 369 462C349.67 462 334 446.33 334 427" stroke="black" stroke-width="4"/>
<path d="M101 203.5C123.551 141.239 168.5 110 208.5 110H301.2H398.8H455.5V203.5V339V358.5V427H65C59.5 427 59.4999 427 59.5 418C59.5 414.459 62.3634 390.333 67.2377 358.5C68.1926 352.264 69.2247 345.731 70.3276 339C77.9044 292.757 88.8213 237.124 101 203.5Z" stroke="black" stroke-width="12" stroke-linejoin="round"/>
<path d="M175 309.511V230.787C175 227.525 173.73 221 168.648 221H116.561C111.055 221 109.361 222.702 108.091 226.957C106.821 231.213 102.162 250.362 97.0807 273.766C91.9991 297.17 90.7286 307.809 89.4582 313.34C88.1878 318.872 89.4582 321 94.5399 321H163.566C174.577 321 175 318.872 175 309.511Z" fill="#D1E9FF" stroke="black" stroke-width="4"/>
</svg>
