<svg width="512" height="512" viewBox="0 0 512 512" fill="none" xmlns="http://www.w3.org/2000/svg">
<path d="M93 68L121.112 462.422C121.858 472.889 130.567 481 141.061 481H357.941C368.434 481 377.143 472.89 377.89 462.424L406 68.5055" stroke="black" stroke-width="11" stroke-linecap="round"/>
<path d="M348.418 461H149.583C144.309 461 139.941 456.904 139.603 451.64L134.922 378.64C134.552 372.877 139.127 368 144.901 368H353.105C358.88 368 363.455 372.878 363.085 378.641L358.397 451.641C358.059 456.904 353.692 461 348.418 461Z" fill="#865528"/>
<path d="M371.45 84H126.579C120.845 84 116.285 88.812 116.594 94.5379L116.863 99.5379C117.149 104.844 121.535 109 126.849 109H371.18C376.493 109 380.879 104.844 381.165 99.5386L381.435 94.5386C381.744 88.8124 377.184 84 371.45 84Z" fill="#562009"/>
<path d="M368.516 128H129.51C123.735 128 119.161 132.877 119.53 138.64L122.929 191.64C123.267 196.904 127.634 201 132.909 201H365.112C370.387 201 374.754 196.904 375.092 191.641L378.495 138.641C378.865 132.878 374.291 128 368.516 128Z" fill="#ECE3CE"/>
<path d="M362.608 220H135.41C129.635 220 125.061 224.877 125.43 230.64L132.421 339.64C132.758 344.904 137.126 349 142.4 349H355.609C360.883 349 365.251 344.904 365.589 339.641L372.588 230.641C372.958 224.878 368.383 220 362.608 220Z" fill="#DBCEAC"/>
</svg>
