<svg width="512" height="512" viewBox="0 0 512 512" fill="none" xmlns="http://www.w3.org/2000/svg">
<rect width="512" height="512" rx="108" fill="url(#paint0_linear)"/>
<path d="M123.494 80L147.187 412.422C147.933 422.889 156.642 431 167.136 431H345.866C356.359 431 365.068 422.89 365.815 412.424L389.506 80.4296" stroke="#FF740F" stroke-width="11" stroke-linecap="round"/>
<path d="M340.01 414.002H173.841C168.566 414.002 164.199 409.906 163.861 404.642L160.511 352.403C160.141 346.64 164.716 341.763 170.49 341.763H343.364C349.139 341.763 353.714 346.64 353.344 352.403L349.99 404.643C349.652 409.906 345.284 414.002 340.01 414.002Z" fill="#865528"/>
<path d="M155.663 130.568H358.209C363.484 130.568 367.851 126.472 368.189 121.209L368.516 116.119C368.886 110.36 364.317 105.484 358.545 105.479L155.334 105.294C149.556 105.288 144.976 110.167 145.346 115.934L145.684 121.208C146.021 126.471 150.389 130.568 155.663 130.568Z" fill="#743C14"/>
<path d="M353.053 210.881H160.814C155.54 210.881 151.172 206.785 150.835 201.521L147.757 153.531C147.387 147.768 151.962 142.891 157.736 142.891H356.134C361.909 142.891 366.484 147.769 366.113 153.532L363.032 201.522C362.694 206.785 358.327 210.881 353.053 210.881Z" fill="#ECE3CE"/>
<path d="M345.467 329.015H168.39C163.116 329.015 158.748 324.918 158.411 319.655L152.935 234.27C152.565 228.507 157.14 223.63 162.914 223.63H350.95C356.725 223.63 361.299 228.507 360.929 234.27L355.447 319.655C355.109 324.919 350.741 329.015 345.467 329.015Z" fill="#DBCEAC"/>
<defs>
<linearGradient id="paint0_linear" x1="471.365" y1="4.48152e-05" x2="1.21101e-06" y2="512" gradientUnits="userSpaceOnUse">
<stop stop-color="#585858"/>
<stop offset="1"/>
</linearGradient>
</defs>
</svg>
