<svg width="512" height="512" viewBox="0 0 512 512" fill="none" xmlns="http://www.w3.org/2000/svg">
<rect x="59" y="203" width="393" height="200" rx="10" fill="#E3AC7B"/>
<rect x="59" y="157" width="393" height="29" rx="10" fill="#DDD0AC"/>
<path d="M403.584 142H368C359.163 142 352.196 134.818 353.729 126.115C354.938 119.248 356.9 110.861 359.974 101.757C367.948 78.1356 373.264 78.1356 383.895 67.6373C388.64 62.9528 393.053 62.4054 396.49 63.4446C401.008 64.8106 401.65 70.3351 402.035 75.0392C402.458 80.1897 404.547 85.9324 410.475 88.6338C417.338 91.7617 419.057 110.939 418.999 127.15C418.969 135.531 411.965 142 403.584 142Z" fill="#C07043"/>
<path d="M35 429H479" stroke="black" stroke-width="11" stroke-linecap="round"/>
</svg>
