<svg width="512" height="512" viewBox="0 0 512 512" fill="none" xmlns="http://www.w3.org/2000/svg">
<rect width="512" height="512" rx="108" fill="url(#paint0_linear)"/>
<rect x="100.919" y="212.104" width="309.797" height="157.658" rx="10" fill="#E3AC7B"/>
<rect x="100.919" y="175.842" width="309.797" height="22.8604" rx="10" fill="#DDD0AC"/>
<path d="M369.403 164.018H347.887C339.051 164.018 332.114 156.826 333.883 148.168C334.846 143.461 336.227 138.06 338.173 132.295C344.459 113.674 348.649 113.674 357.03 105.399C360.094 102.374 362.982 101.537 365.416 101.784C370.112 102.26 370.742 108.144 371.524 112.798C372.13 116.406 373.904 120.091 377.983 121.95C382.954 124.216 384.501 137.164 384.684 149.164C384.811 157.544 377.784 164.018 369.403 164.018Z" fill="#C07043"/>
<path d="M82 390.257H432" stroke="#FF740F" stroke-width="11" stroke-linecap="round"/>
<defs>
<linearGradient id="paint0_linear" x1="471.365" y1="4.48152e-05" x2="1.21101e-06" y2="512" gradientUnits="userSpaceOnUse">
<stop stop-color="#585858"/>
<stop offset="1"/>
</linearGradient>
</defs>
</svg>
