<svg width="512" height="512" viewBox="0 0 512 512" fill="none" xmlns="http://www.w3.org/2000/svg">
<rect width="512" height="512" rx="108" fill="url(#paint0_linear)"/>
<circle cx="255.5" cy="255.5" r="132.537" fill="#EBD0B8"/>
<path d="M202.948 200.426L202.051 198.722C199.652 194.163 201.257 188.523 205.698 185.911C210.262 183.226 216.139 184.722 218.863 189.264L219.854 190.915C222.805 195.832 220.87 202.221 215.688 204.676C210.989 206.902 205.37 205.028 202.948 200.426Z" fill="#A33709"/>
<path d="M170.6 271.214L168.712 271.593C163.661 272.607 158.704 269.474 157.453 264.477C156.166 259.339 159.261 254.125 164.388 252.794L166.252 252.31C171.802 250.868 177.384 254.529 178.275 260.193C179.083 265.33 175.698 270.19 170.6 271.214Z" fill="#A33709"/>
<path d="M258.436 234.511L260.31 234.068C265.324 232.884 270.384 235.848 271.803 240.8C273.263 245.891 270.346 251.207 265.267 252.711L263.421 253.257C257.923 254.885 252.219 251.416 251.138 245.785C250.156 240.678 253.375 235.706 258.436 234.511Z" fill="#A33709"/>
<path d="M288.134 147.669L289.964 147.071C294.861 145.471 300.151 148 301.981 152.816C303.862 157.767 301.4 163.308 296.466 165.232L294.671 165.932C289.329 168.014 283.355 165.035 281.805 159.514C280.4 154.508 283.191 149.284 288.134 147.669Z" fill="#A33709"/>
<path d="M205.773 348.398L206.688 346.704C209.138 342.171 214.716 340.363 219.358 342.596C224.131 344.891 226.162 350.604 223.908 355.397L223.089 357.14C220.649 362.329 214.265 364.282 209.34 361.345C204.874 358.683 203.3 352.972 205.773 348.398Z" fill="#A33709"/>
<path d="M224.056 289.982L224.634 288.145C226.179 283.23 231.312 280.396 236.294 281.707C241.416 283.055 244.494 288.28 243.191 293.413L242.717 295.28C241.306 300.837 235.409 303.966 230.016 302.017C225.125 300.251 222.497 294.943 224.056 289.982Z" fill="#A33709"/>
<path d="M321.342 316.416L321.979 314.599C323.686 309.738 328.91 307.075 333.846 308.549C338.92 310.065 341.824 315.388 340.353 320.476L339.817 322.326C338.224 327.834 332.227 330.766 326.901 328.641C322.071 326.714 319.62 321.323 321.342 316.416Z" fill="#A33709"/>
<path d="M336.575 246.905L335.678 245.201C333.278 240.642 334.883 235.002 339.324 232.39C343.889 229.705 349.765 231.201 352.49 235.742L353.481 237.394C356.431 242.311 354.496 248.7 349.314 251.155C344.615 253.381 338.996 251.506 336.575 246.905Z" fill="#A33709"/>
<circle cx="255.5" cy="255.5" r="170" stroke="#FF740F" stroke-width="11"/>
<defs>
<linearGradient id="paint0_linear" x1="471.365" y1="4.48152e-05" x2="1.21101e-06" y2="512" gradientUnits="userSpaceOnUse">
<stop stop-color="#585858"/>
<stop offset="1"/>
</linearGradient>
</defs>
</svg>
