<svg width="512" height="512" viewBox="0 0 512 512" fill="none" xmlns="http://www.w3.org/2000/svg">
<path d="M59 310V393C59 398.523 63.4771 403 69 403H396C401.523 403 406 398.523 406 393V310C406 304.477 401.523 300 396 300H69C63.4772 300 59 304.477 59 310Z" fill="#834023"/>
<path d="M59 266V275C59 280.523 63.4771 285 69 285H396C401.523 285 406 280.523 406 275V266C406 260.477 401.523 256 396 256H69C63.4772 256 59 260.477 59 266Z" fill="#562009"/>
<path d="M59 133V231C59 236.523 63.4772 241 69 241H395C400.523 241 405 236.523 405 231V133C405 127.477 400.523 123 395 123H69C63.4772 123 59 127.477 59 133Z" fill="#834023"/>
<path d="M442 76H69C63.4772 76 59 80.4772 59 86V98.5C59 104.023 63.4772 108.5 69 108.5H409C414.523 108.5 419 112.977 419 118.5V393C419 398.523 423.477 403 429 403H442C447.523 403 452 398.523 452 393V86C452 80.4772 447.523 76 442 76Z" fill="#562009"/>
<path d="M35 429H479" stroke="black" stroke-width="11" stroke-linecap="round"/>
</svg>
