<svg width="512" height="512" viewBox="0 0 512 512" fill="none" xmlns="http://www.w3.org/2000/svg">
<rect width="512" height="512" rx="108" fill="url(#paint0_linear)"/>
<path d="M100.507 300.042V361.45C100.507 366.973 104.984 371.45 110.507 371.45H364.765C370.288 371.45 374.765 366.973 374.765 361.45V300.042C374.765 294.52 370.288 290.042 364.765 290.042H110.507C104.984 290.042 100.507 294.52 100.507 300.042Z" fill="#9D5A3E"/>
<path d="M100.507 265.266V268.187C100.507 273.71 104.984 278.187 110.507 278.187H364.765C370.288 278.187 374.765 273.71 374.765 268.187V265.266C374.765 259.744 370.288 255.266 364.765 255.266H110.507C104.984 255.266 100.507 259.744 100.507 265.266Z" fill="#8E401E"/>
<path d="M100.507 160.147V233.411C100.507 238.934 104.984 243.411 110.507 243.411H363.974C369.497 243.411 373.974 238.934 373.974 233.411V160.147C373.974 154.624 369.497 150.147 363.975 150.147H110.507C104.984 150.147 100.507 154.624 100.507 160.147Z" fill="#9D5A3E"/>
<path d="M401.122 113H110.507C104.984 113 100.507 117.477 100.507 123V128.687C100.507 134.21 104.984 138.687 110.507 138.687H375.04C380.562 138.687 385.04 143.164 385.04 148.687V361.45C385.04 366.973 389.517 371.45 395.04 371.45H401.122C406.645 371.45 411.122 366.973 411.122 361.45V123C411.122 117.477 406.645 113 401.122 113Z" fill="#8E401E"/>
<path d="M81.5382 392H432.462" stroke="#FF740F" stroke-width="11" stroke-linecap="round"/>
<defs>
<linearGradient id="paint0_linear" x1="471.365" y1="4.48152e-05" x2="1.21101e-06" y2="512" gradientUnits="userSpaceOnUse">
<stop stop-color="#585858"/>
<stop offset="1"/>
</linearGradient>
</defs>
</svg>
