<svg width="512" height="512" viewBox="0 0 512 512" fill="none" xmlns="http://www.w3.org/2000/svg">
<rect width="512" height="512" rx="108" fill="url(#paint0_linear)"/>
<path d="M123.494 80L147.187 412.422C147.933 422.889 156.642 431 167.136 431H345.866C356.359 431 365.068 422.89 365.815 412.424L389.506 80.4296" stroke="#FF740F" stroke-width="11" stroke-linecap="round"/>
<path d="M340.01 414.002H173.816C168.552 414.002 164.189 409.921 163.839 404.668L160.325 352.003C159.94 346.231 164.518 341.338 170.303 341.338H343.392C349.167 341.338 353.741 346.215 353.371 351.979L349.99 404.643C349.652 409.906 345.284 414.002 340.01 414.002Z" fill="#865528"/>
<path d="M351.386 216.831H162.478C156.703 216.831 152.129 221.708 152.499 227.471L158.411 319.655C158.748 324.918 163.116 329.015 168.39 329.015H345.467C350.741 329.015 355.109 324.919 355.447 319.655L361.366 227.471C361.736 221.708 357.161 216.831 351.386 216.831Z" fill="#DBCEAC"/>
<path d="M353.951 176.886H159.916C154.142 176.886 149.567 181.763 149.937 187.526L150.399 194.722C150.736 199.986 155.104 204.082 160.378 204.082H353.489C358.763 204.082 363.131 199.986 363.469 194.723L363.931 187.527C364.301 181.764 359.726 176.886 353.951 176.886Z" fill="#ECE3CE"/>
<defs>
<linearGradient id="paint0_linear" x1="471.365" y1="4.48152e-05" x2="1.21101e-06" y2="512" gradientUnits="userSpaceOnUse">
<stop stop-color="#585858"/>
<stop offset="1"/>
</linearGradient>
</defs>
</svg>
