<svg width="512" height="512" viewBox="0 0 512 512" fill="none" xmlns="http://www.w3.org/2000/svg">
<path d="M93 68L121.112 462.422C121.858 472.889 130.567 481 141.061 481H357.941C368.434 481 377.143 472.89 377.89 462.424L406 68.5055" stroke="black" stroke-width="11" stroke-linecap="round"/>
<path d="M348.418 461H149.583C144.309 461 139.941 456.904 139.604 451.64L135.178 382.64C134.809 376.877 139.383 372 145.158 372H352.848C358.623 372 363.198 376.878 362.828 382.641L358.397 451.641C358.059 456.904 353.692 461 348.418 461Z" fill="#865528"/>
<path d="M356.251 339H141.759C136.485 339 132.117 334.904 131.779 329.64L124.373 214.15C124.003 208.384 128.583 203.505 134.362 203.51L363.662 203.73C369.434 203.736 374.002 208.612 373.632 214.371L366.231 329.641C365.893 334.904 361.525 339 356.251 339Z" fill="#DBCEAC"/>
<path d="M366.589 178H131.434C126.159 178 121.792 173.904 121.454 168.64L121.005 161.64C120.636 155.877 125.21 151 130.985 151H367.039C372.814 151 377.388 155.878 377.018 161.641L376.569 168.641C376.231 173.904 371.863 178 366.589 178Z" fill="#ECE3CE"/>
</svg>
