<svg width="512" height="512" viewBox="0 0 512 512" fill="none" xmlns="http://www.w3.org/2000/svg">
<path d="M93 68L121.112 462.422C121.858 472.889 130.567 481 141.061 481H357.941C368.434 481 377.143 472.89 377.89 462.424L406 68.5055" stroke="black" stroke-width="11" stroke-linecap="round"/>
<path d="M348.418 461H149.583C144.309 461 139.941 456.904 139.603 451.64L134.922 378.64C134.552 372.877 139.127 368 144.901 368H353.105C358.88 368 363.455 372.878 363.085 378.641L358.397 451.641C358.059 456.904 353.692 461 348.418 461Z" fill="#865528"/>
<path d="M371.148 87H126.88C121.106 87 116.531 91.8772 116.901 97.64L118.568 123.64C118.906 128.904 123.273 133 128.548 133H369.479C374.753 133 379.12 128.904 379.458 123.641L381.128 97.6408C381.498 91.8777 376.923 87 371.148 87Z" fill="#ECE3CE"/>
<path d="M355.93 344H142.08C136.805 344 132.438 339.904 132.1 334.64L121.518 169.64C121.149 163.877 125.723 159 131.498 159H366.525C372.3 159 376.874 163.878 376.504 169.641L365.91 334.641C365.572 339.904 361.204 344 355.93 344Z" fill="#DBCEAC"/>
</svg>
