<svg width="512" height="512" viewBox="0 0 512 512" fill="none" xmlns="http://www.w3.org/2000/svg">
<rect width="512" height="512" rx="108" fill="url(#paint0_linear)"/>
<path d="M123.494 80L147.187 412.422C147.933 422.889 156.642 431 167.136 431H345.866C356.359 431 365.068 422.89 365.815 412.424L389.506 80.4296" stroke="#FF740F" stroke-width="11" stroke-linecap="round"/>
<path d="M340.01 414.002H173.84C168.566 414.002 164.199 409.906 163.861 404.642L160.511 352.403C160.141 346.64 164.716 341.763 170.49 341.763H343.364C349.139 341.763 353.714 346.64 353.344 352.403L349.989 404.643C349.651 409.906 345.284 414.002 340.01 414.002Z" fill="#865528"/>
<path d="M354.06 175.186H159.807C154.033 175.186 149.458 180.064 149.828 185.826L158.411 319.655C158.748 324.918 163.116 329.015 168.39 329.015H345.467C350.741 329.015 355.109 324.919 355.447 319.655L364.04 185.827C364.41 180.064 359.835 175.186 354.06 175.186Z" fill="#DBCEAC"/>
<path d="M358.535 105.496H155.338C149.563 105.496 144.989 110.374 145.359 116.136L147.728 153.078C148.065 158.342 152.433 162.438 157.707 162.438H356.163C361.437 162.438 365.805 158.342 366.143 153.079L368.515 116.137C368.885 110.374 364.31 105.496 358.535 105.496Z" fill="#ECE3CE"/>
<defs>
<linearGradient id="paint0_linear" x1="471.365" y1="4.48152e-05" x2="1.21101e-06" y2="512" gradientUnits="userSpaceOnUse">
<stop stop-color="#585858"/>
<stop offset="1"/>
</linearGradient>
</defs>
</svg>
