<svg width="512" height="512" viewBox="0 0 512 512" fill="none" xmlns="http://www.w3.org/2000/svg">
<path d="M93 68L121.112 462.422C121.858 472.889 130.567 481 141.061 481H357.941C368.434 481 377.143 472.89 377.89 462.424L406 68.5055" stroke="black" stroke-width="11" stroke-linecap="round"/>
<path d="M348.418 461H149.583C144.309 461 139.941 456.904 139.603 451.64L122.416 183.64C122.047 177.877 126.621 173 132.396 173H365.626C371.401 173 375.976 177.878 375.606 183.641L358.397 451.641C358.059 456.904 353.692 461 348.418 461Z" fill="#93BFD2"/>
<path d="M370.249 101H127.778C122.004 101 117.429 105.877 117.799 111.64L119.787 142.64C120.124 147.904 124.492 152 129.766 152H368.259C373.533 152 377.9 147.904 378.238 142.641L380.229 111.641C380.599 105.878 376.024 101 370.249 101Z" fill="#865528"/>
</svg>
