<svg width="512" height="512" viewBox="0 0 512 512" fill="none" xmlns="http://www.w3.org/2000/svg">
<rect width="512" height="512" rx="108" fill="url(#paint0_linear)"/>
<path d="M124 80.6677L147.598 411.754C148.344 422.222 157.053 430.332 167.547 430.332H345.455C355.948 430.332 364.657 422.223 365.404 411.756L389 81.0957" stroke="#FF740F" stroke-width="11" stroke-linecap="round"/>
<path d="M339.657 413.399H174.191C168.916 413.399 164.549 409.303 164.211 404.039L150.291 186.979C149.921 181.216 154.496 176.339 160.27 176.339H353.594C359.369 176.339 363.944 181.216 363.574 186.979L349.636 404.04C349.298 409.303 344.931 413.399 339.657 413.399Z" fill="#93BFD2"/>
<path d="M358.106 106.067H155.764C149.989 106.067 145.415 110.944 145.784 116.707L148.194 154.279C148.531 159.543 152.899 163.639 158.173 163.639H355.694C360.968 163.639 365.335 159.543 365.673 154.28L368.086 116.708C368.456 110.945 363.881 106.067 358.106 106.067Z" fill="#865528"/>
<defs>
<linearGradient id="paint0_linear" x1="471.365" y1="4.48152e-05" x2="1.21101e-06" y2="512" gradientUnits="userSpaceOnUse">
<stop stop-color="#585858"/>
<stop offset="1"/>
</linearGradient>
</defs>
</svg>
