<svg width="512" height="512" viewBox="0 0 512 512" fill="none" xmlns="http://www.w3.org/2000/svg">
<circle cx="255.5" cy="255.5" r="211" stroke="black" stroke-width="11"/>
<circle cx="255.5" cy="255.5" r="145.5" fill="#EDCF96"/>
<circle cx="180.159" cy="190.523" r="7.17534" fill="#E6B964"/>
<circle cx="230.386" cy="190.523" r="7.17534" fill="#E6B964"/>
<circle cx="280.614" cy="190.523" r="7.17534" fill="#E6B964"/>
<circle cx="330.841" cy="190.523" r="7.17534" fill="#E6B964"/>
<circle cx="180.159" cy="223.211" r="7.17534" fill="#E6B964"/>
<circle cx="230.386" cy="223.211" r="7.17534" fill="#E6B964"/>
<circle cx="280.614" cy="223.211" r="7.17534" fill="#E6B964"/>
<circle cx="330.841" cy="223.211" r="7.17534" fill="#E6B964"/>
<circle cx="180.159" cy="255.899" r="7.17534" fill="#E6B964"/>
<circle cx="230.386" cy="255.899" r="7.17534" fill="#E6B964"/>
<circle cx="280.614" cy="255.899" r="7.17534" fill="#E6B964"/>
<circle cx="330.841" cy="255.899" r="7.17534" fill="#E6B964"/>
<circle cx="180.159" cy="288.586" r="7.17534" fill="#E6B964"/>
<circle cx="230.386" cy="288.586" r="7.17534" fill="#E6B964"/>
<circle cx="280.614" cy="288.586" r="7.17534" fill="#E6B964"/>
<circle cx="330.841" cy="288.586" r="7.17534" fill="#E6B964"/>
<circle cx="180.159" cy="321.274" r="7.17534" fill="#E6B964"/>
<circle cx="230.386" cy="321.274" r="7.17534" fill="#E6B964"/>
<circle cx="280.614" cy="321.274" r="7.17534" fill="#E6B964"/>
<circle cx="330.841" cy="321.274" r="7.17534" fill="#E6B964"/>
</svg>
